<?xml version="1.0" standalone="no"?>
<!DOCTYPE svg PUBLIC "-//W3C//DTD SVG 20010904//EN"
 "http://www.w3.org/TR/2001/REC-SVG-20010904/DTD/svg10.dtd">
<svg version="1.0" xmlns="http://www.w3.org/2000/svg"
 width="1600.000000pt" height="1600.000000pt" viewBox="0 0 1600.000000 1600.000000"
 preserveAspectRatio="xMidYMid meet">
<metadata>
Created by potrace 1.14, written by Peter Selinger 2001-2017
</metadata>
<g transform="translate(0.000000,1600.000000) scale(0.100000,-0.100000)"
fill="#000000" stroke="none">
<path d="M0 8000 l0 -8000 8000 0 8000 0 0 8000 0 8000 -8000 0 -8000 0 0
-8000z m8610 4421 c377 -32 660 -76 944 -145 1122 -274 1757 -855 2122 -1941
155 -463 242 -939 296 -1625 18 -223 18 -1243 0 -1470 -72 -931 -216 -1542
-486 -2065 -296 -573 -669 -946 -1201 -1201 -427 -204 -896 -316 -1610 -385
-176 -17 -933 -23 -1161 -10 -1139 67 -1919 338 -2452 855 -430 417 -756 1061
-896 1771 -101 515 -140 1009 -141 1770 0 611 18 913 81 1355 140 984 459
1737 938 2215 528 525 1355 818 2501 885 189 11 899 5 1065 -9z"/>
<path d="M7715 10134 c-267 -22 -548 -83 -718 -156 l-49 -21 1438 -1438 c791
-791 1442 -1435 1446 -1431 9 10 34 144 52 287 49 379 47 889 -4 1257 -66 468
-208 819 -427 1049 -226 238 -525 370 -983 434 -111 16 -633 29 -755 19z"/>
<path d="M6191 8944 c-43 -154 -77 -418 -92 -711 -20 -377 11 -858 72 -1139
62 -287 211 -587 382 -770 265 -284 649 -422 1260 -454 412 -22 831 24 1112
120 83 28 185 72 185 79 0 3 -654 660 -1454 1460 l-1454 1454 -11 -39z"/>
</g>
</svg>
